# xmcd
#
# Track frame offsets:
#	150
#	15377
#	31102
#	44857
#	58187
#	73122
#	87195
#	100240
#	116642
#	130880
#	145820
#	160747
#	175395
#
# Disc length: 2533 seconds
#
# Revision: 1
# Processed by: cddbd v1.4PL0 Copyright (c) Steve Scherf et al.
# Submitted via: audiograbber 1.80.04
#
DISCID=b309e30d
DTITLE=As Meninas - Loucas por você
DYEAR=2001
DGENRE=Samba
TTITLE0=Balanço da roseira
TTITLE1=Mamãe, me ouça
TTITLE2=Largadinho
TTITLE3=Tudo em cima
TTITLE4=Pizza com dendê
TTITLE5=Ai, caramba
TTITLE6=Cambalacho
TTITLE7=Não dá, meu nego, não dá
TTITLE8=H2O
TTITLE9=Parará
TTITLE10=A tribo
TTITLE11=Diga que sim
TTITLE12=Todos os sambas
EXTD=
EXTT0=
EXTT1=
EXTT2=
EXTT3=
EXTT4=
EXTT5=
EXTT6=
EXTT7=
EXTT8=
EXTT9=
EXTT10=
EXTT11=
EXTT12=
PLAYORDER=
